# xmcd
#
# Track frame offsets: 
#        150
#        17165
#        34335
#        51350
#
# Disc length: 911 seconds
#
# Revision: 3
# Processed by: cddbd v1.5.2PL0 Copyright (c) Steve Scherf et al.
# Submitted via: ExactAudioCopy v1.0b3
#
DISCID=30038d04
DTITLE=大塚愛 - Happy Days
DYEAR=2004
DGENRE=JPop
TTITLE0=Happy Days
TTITLE1=星くず
TTITLE2=Happy Days(Instrumental)
TTITLE3=星くず(Instrumental)
EXTD=YEAR: 2004
EXTT0=
EXTT1=
EXTT2=
EXTT3=
PLAYORDER=
